# AST/ASF file generated using VICON BodyLanguage
# -----------------------------------------------
:version 1.10
:name VICON
:units
  mass 1.0
  length 0.45
  angle deg
:documentation
   .ast/.asf automatically generated from VICON data using
   VICON BodyBuilder and BodyLanguage model FoxedUp or BRILLIANT.MOD
:root
   order TX TY TZ RX RY RZ
   axis XYZ
   position 0 0 0  
   orientation 0 0 0 
:bonedata
  begin
     id 1 
     name lhipjoint
     direction 0.570549 -0.739093 0.358072 
     length 2.41801 
     axis 0 0 0  XYZ
  end
  begin
     id 2 
     name lfemur
     direction 0.34202 -0.939693 0  
     length 7.44434  
     axis 0 0 20  XYZ
    dof rx ry rz
    limits (-160.0 20.0)
           (-70.0 70.0)
           (-60.0 70.0)
  end
  begin
     id 3 
     name ltibia
     direction 0.34202 -0.939693 0   
     length 7.60047   
     axis 0 0 20   XYZ
    dof rx
    limits (-10.0 170.0)
  end
  begin
     id 4 
     name lfoot
     direction 0.0909041 -0.249757 0.964032   
     length 2.03437   
     axis -90 7.62852e-016 20   XYZ
    dof rx rz
    limits (-45.0 90.0)
           (-70.0 20.0)
  end
  begin
     id 5 
     name ltoes
     direction 1.53547e-011 -4.2174e-011 1   
     length 1.02054   
     axis -90 7.62852e-016 20   XYZ
    dof rx
    limits (-90.0 20.0)
  end
  begin
     id 6 
     name rhipjoint
     direction -0.558096 -0.746754 0.361784   
     length 2.3932  
     axis 0 0 0  XYZ 
  end
  begin
     id 7 
     name rfemur
     direction -0.34202 -0.939693 0   
     length 7.3886   
     axis 0 0 -20   XYZ
    dof rx ry rz
    limits (-160.0 20.0)
           (-70.0 70.0)
           (-70.0 60.0)
  end
  begin
     id 8 
     name rtibia
     direction -0.34202 -0.939693 0   
     length 7.4839   
     axis 0 0 -20   XYZ
    dof rx
    limits (-10.0 170.0)
 end
 begin
     id 9 
     name rfoot
     direction -0.114619 -0.314914 0.942174   
     length 2.25127  
     axis -90 -7.62852e-016 -20   XYZ
    dof rx rz
    limits (-45.0 90.0)
           (-20.0 70.0)
  end
  begin
     id 10 
     name rtoes
     direction -1.53518e-011 -4.21881e-011 1   
     length 1.11821   
     axis -90 -7.62852e-016 -20   XYZ
    dof rx
    limits (-90.0 20.0)
  end
  begin
     id 11 
     name lowerback
     direction -0.00902269 0.996426 -0.0839821   
     length 2.25052   
     axis 0 0 0   XYZ
    dof rx ry rz
    limits (-20.0 45.0)
           (-30.0 30.0)
           (-30.0 30.0)
  end
  begin
     id 12 
     name upperback
     direction 0.0370973 0.999169 -0.0168941   
     length 2.24876   
     axis 0 0 0   XYZ
    dof rx ry rz
    limits (-20.0 45.0)
           (-30.0 30.0)
           (-30.0 30.0)
  end
  begin
     id 13 
     name thorax
     direction 0.0402726 0.998931 0.0227027   
     length 2.26408   
     axis 0 0 0   XYZ
    dof rx ry rz
    limits (-20.0 45.0)
           (-30.0 30.0)
           (-30.0 30.0)
  end
  begin
     id 14 
     name lowerneck
     direction -0.0733697 0.98508 0.155675   
     length 1.58204   
     axis 0 0 0   XYZ
    dof rx ry rz
    limits (-20.0 45.0)
           (-30.0 30.0)
           (-30.0 30.0)
  end
  begin
     id 15 
     name upperneck
     direction 0.0426554 0.993501 -0.105526   
     length 1.61222   
     axis 0 0 0   XYZ
    dof rx ry rz
    limits (-20.0 45.0)
           (-30.0 30.0)
           (-30.0 30.0)
  end
  begin
     id 16
     name head
     direction 0.020792 0.998384 -0.0528868  
     length 1.61527  
     axis 0 0 0   XYZ
    dof rx ry rz
    limits (-20.0 45.0)
           (-30.0 30.0)
           (-30.0 30.0)
  end
  begin
     id 17 
     name lclavicle
     direction 0.967109 0.155462 -0.201325  
     length 3.59357  
     axis 0 0 0   XYZ
    dof ry rz
    limits (-20.0 10.0)
           (0.0 20.0)
  end
  begin
     id 18 
     name lhumerus
     direction 1 -4.48968e-011 2.38195e-027   
     length 5.38154   
     axis 180 -30 -90   XYZ
    dof rx ry rz
    limits (-60.0 90.0)
           (-90.0 90.0)
           (-90.0 90.0)
  end
  begin
     id 19
     name lradius
     direction 1 -4.48961e-011 4.85371e-027   
     length 3.33312   
     axis 180 -30 -90   XYZ
    dof rx
    limits (-10.0 170.0)
  end
  begin
     id 20
     name lwrist
     direction 1 -4.48961e-011 4.76515e-027   
     length 1.66656   
     axis -3.27502e-015 90 90   XYZ
    dof ry
    limits (-180.0 0.0)
 end
  begin
     id 21 
     name lhand
     direction 1 -4.48951e-011 9.53074e-027   
     length 0.710789   
     axis -6.08098e-015 90 90   XYZ
    dof rx rz
    limits (-90.0 90.0)
           (-45.0 45.0)
  end
  begin
     id 22 
     name lfingers
     direction 1 -4.48953e-011 1.90613e-026   
     length 0.573057   
     axis -1.21619e-014 90 90   XYZ
    dof rx
    limits (0.0 90.0)
  end
  begin
     id 23
     name lthumb
     direction 0.707107 -6.34973e-011 0.707107   
     length 0.822798   
     axis -90 45 -9.86923e-015   XYZ
    dof rx rz
    limits (-45.0 45.0)
           (-45.0 45.0)
  end
  begin
     id 24 
     name rclavicle
     direction -0.9585 0.265289 -0.104398   
     length 3.42039  
     axis 0 0 0   XYZ 
    dof ry rz
    limits (-10.0 20.0)
           (-20.0 0.0)
  end
  begin
     id 25 
     name rhumerus
     direction -1 -4.48977e-011 2.21478e-027  
     length 5.16954   
     axis 180 30 90   XYZ
    dof rx ry rz
    limits (-90.0 60.0)
           (-90.0 90.0)
           (-90.0 90.0)
  end
  begin
     id 26 
     name rradius
     direction -1 -4.48967e-011 5.63677e-027   
     length 3.38287   
     axis 180 30 90   XYZ
    dof rx
    limits (-10.0 170.0)
  end
  begin
     id 27 
     name rwrist
     direction -1 -4.48967e-011 4.76501e-027   
     length 1.69144   
     axis -3.27502e-015 -90 -90   XYZ
    dof ry
    limits (-180.0 0.0)
  end
  begin
     id 28
     name rhand
     direction -1 -4.48902e-011 9.53292e-027   
     length 0.817967   
     axis -6.08098e-015 -90 -90   XYZ
    dof rx rz
    limits (-90.0 90.0)
           (-45.0 45.0)
  end
  begin
     id 29
     name rfingers
     direction -1 -4.49012e-011 1.90561e-026   
     length 0.659466   
     axis -1.21619e-014 -90 -90   XYZ
    dof rx
    limits (0.0 90.0)
  end
  begin
     id 30
     name rthumb
     direction -0.707107 -6.34944e-011 0.707107   
     length 0.946865   
     axis -90 -45 9.86923e-015   XYZ
    dof rx rz
    limits (-45.0 45.0)
           (-45.0 45.0)
  end
:hierarchy
  begin
    root lhipjoint rhipjoint lowerback
    lhipjoint lfemur
    lfemur ltibia
    ltibia lfoot
    lfoot ltoes
    rhipjoint rfemur
    rfemur rtibia
    rtibia rfoot
    rfoot rtoes
    lowerback upperback
    upperback thorax
    thorax lowerneck lclavicle rclavicle
    lowerneck upperneck
    upperneck head
    lclavicle lhumerus
    lhumerus lradius
    lradius lwrist
    lwrist lhand lthumb
    lhand lfingers
    rclavicle rhumerus
    rhumerus rradius
    rradius rwrist
    rwrist rhand rthumb
    rhand rfingers
  end

#!OML:ASF F:\twosubjects\two\wednesday\Session 1\Justin1.ASF
:FULLY-SPECIFIED
:DEGREES
961
root 7.36482 17.4724 6.47022 -180.82 103.491 -539.084
lowerback 8.10685 1.77467 0.0501995
upperback 3.6699 2.49428 2.28008
thorax -0.847747 1.27364 2.10321
lowerneck -20.1185 -1.91723 -9.32623
upperneck 20.9071 -0.256175 2.57369
head 10.0221 -0.521838 2.42006
rclavicle -3.97569e-016 -3.18055e-015
rhumerus 38.8266 25.8752 -59.8914
rradius 40.5227
rwrist 1.66853
rhand -22.3879 37.6389
rfingers 7.12502
rthumb 4.03416 7.69737
lclavicle -3.97569e-016 -3.18055e-015
lhumerus 21.6679 -5.61686 58.2187
lradius 41.3835
lwrist -20.3333
lhand -9.33947 31.2254
lfingers 7.12502
lthumb 16.6196 60.5339
rfemur -20.265 -1.08713 8.88422
rtibia 37.5397
rfoot -12.6455 4.2076
rtoes -6.25853
lfemur -21.5761 1.21659 -26.0155
ltibia 35.8616
lfoot -9.45153 -11.0282
ltoes 16.9843
962
root 7.40807 17.4347 6.5001 -176.972 102.382 -534.642
lowerback 8.53802 1.81229 -0.783422
upperback 3.79744 2.47916 1.91781
thorax -0.970882 1.26172 2.18726
lowerneck -19.7949 -2.04001 -9.6462
upperneck 20.7831 -0.460074 2.96771
head 9.9327 -0.591817 2.5816
rclavicle 4.35338e-014 -1.43125e-014
rhumerus 38.9099 25.6861 -59.8474
rradius 40.3727
rwrist 1.70543
rhand -22.5412 37.4963
rfingers 7.12502
rthumb 3.88619 7.552
lclavicle 4.35338e-014 -1.43125e-014
lhumerus 21.8805 -5.65751 58.0347
lradius 41.4461
lwrist -20.284
lhand -9.09578 31.2849
lfingers 7.12502
lthumb 16.8542 60.5735
rfemur -19.4579 -1.49379 7.67964
rtibia 37.5573
rfoot -12.4295 3.56162
rtoes -3.2833
lfemur -21.0467 1.84077 -27.1296
ltibia 36.3239
lfoot -10.0457 -12.115
ltoes 15.1486
963
root 7.425 17.3957 6.54363 -178.805 100.906 -536.887
lowerback 8.5282 1.63573 -0.368298
upperback 3.55388 2.27768 1.99791
thorax -1.19613 1.16498 2.05152
lowerneck -19.4086 -2.05089 -9.57919
upperneck 20.6145 -0.523663 2.91373
head 9.80584 -0.618115 2.5394
rclavicle -4.87022e-015 4.77083e-015
rhumerus 39.0737 25.6957 -59.7474
rradius 40.2232
rwrist 1.76023
rhand -22.7227 37.4008
rfingers 7.12502
rthumb 3.71084 7.45339
lclavicle -4.87022e-015 4.77083e-015
lhumerus 21.9539 -6.09178 57.4193
lradius 41.5461
lwrist -19.7445
lhand -9.17179 31.7949
lfingers 7.12502
lthumb 16.7811 61.0897
rfemur -19.4464 -2.18651 8.30598
rtibia 37.8293
rfoot -11.8612 2.96937
rtoes -1.83271
lfemur -21.8279 2.55337 -26.557
ltibia 37.128
lfoot -10.5397 -14.2808
ltoes 14.038
964
root 7.4238 17.3756 6.59267 -190.08 99.4502 -549.199
lowerback 7.97803 1.48898 1.49969
upperback 3.30756 2.23738 2.62704
thorax -1.10063 1.15745 1.66782
lowerneck -19.0455 -2.15661 -9.73948
upperneck 20.1938 -0.639257 2.80366
head 9.60064 -0.687824 2.504
rclavicle -1.42131e-014 1.51076e-014
rhumerus 39.3191 25.3013 -59.1414
rradius 40.1591
rwrist 1.64688
rhand -22.619 37.3189
rfingers 7.12502
rthumb 3.81101 7.37324
lclavicle -1.42131e-014 1.51076e-014
lhumerus 22.4647 -6.47801 57.2449
lradius 41.5046
lwrist -19.3358
lhand -9.3139 32.1265
lfingers 7.12502
lthumb 16.6443 61.4328
rfemur -19.8765 -2.67668 10.7801
rtibia 38.0455
rfoot -12.0539 2.4561
rtoes -1.17364
lfemur -23.5347 3.02348 -24.2584
ltibia 38.2781
lfoot -11.1245 -16.6519
ltoes 13.4685
965
root 7.43784 17.3493 6.63739 -198.257 98.363 -557.718
lowerback 7.5397 1.53511 2.38357
upperback 3.43516 2.3587 2.95317
thorax -0.706876 1.23062 1.51499
lowerneck -18.6412 -2.32951 -10.0169
upperneck 19.7118 -0.875211 2.91558
head 9.37691 -0.795979 2.54964
rclavicle 2.04748e-014 1.90833e-014
rhumerus 39.5557 24.6339 -58.5555
rradius 40.1232
rwrist 1.36191
rhand -22.5972 37.3054
rfingers 7.12502
rthumb 3.83206 7.36007
lclavicle 2.04748e-014 1.90833e-014
lhumerus 23.3636 -6.45324 57.5139
lradius 41.246
lwrist -19.5314
lhand -9.19222 32.0573
lfingers 7.12502
lthumb 16.7614 61.3538
rfemur -19.5848 -2.79487 11.9697
rtibia 37.8952
rfoot -12.4286 2.18742
rtoes -0.712819
lfemur -24.537 3.5932 -23.1037
ltibia 39.6123
lfoot -12.1529 -18.5858
ltoes 10.156
